<?xml version="1.0" encoding="utf-8" standalone="yes"?>
<!DOCTYPE svg PUBLIC "-//W3C//DTD SVG 1.1//EN" "http://www.w3.org/Graphics/SVG/1.1/DTD/svg11.dtd">
<svg width="672" height="672" viewBox="0 0 672 672" style="fill:none;stroke:none;fill-rule:evenodd;clip-rule:evenodd;stroke-linecap:round;stroke-linejoin:round;stroke-miterlimit:1.5;" version="1.1" xmlns="http://www.w3.org/2000/svg" xmlns:xlink="http://www.w3.org/1999/xlink"><style class="text-font-style fontImports" data-font-family="Shantell Sans">@import url(https://fonts.googleapis.com/css2?family=Shantell+Sans:wght@300..800&amp;amp;display=block);</style><g id="items" style="isolation: isolate"><g id="blend" style="mix-blend-mode: normal"><g id="g-root-cr_6_cr-small-6_dgpib61wvff9g-fill" data-item-order="-131220" transform="translate(155.1328125, 272.02490234375)"><g id="cr_6_cr-small-6_dgpib61wvff9g-fill-merged" stroke="none" fill="#41735b"><g><path d="M10 46C10 65.882 26.118 82 46 82C65.882 82 82 65.882 82 46C82 26.118 65.882 10 46 10C26.118 10 10 26.118 10 46"></path></g></g></g><g id="g-root-sy_6_line_4l2i2a1wvfg25-fill" data-item-order="-131215" transform="translate(170.00018310546875, 354.81494140625)"></g><g id="g-root-cr_5_cr-small-5_5vh0y1wvfdom-fill" data-item-order="-131212" transform="translate(155.1328125, 427.96240234375)"><g id="cr_5_cr-small-5_5vh0y1wvfdom-fill-merged" stroke="none" fill="#82489d"><g><path d="M10 46C10 65.882 26.118 82 46 82C65.882 82 82 65.882 82 46C82 26.118 65.882 10 46 10C26.118 10 10 26.118 10 46"></path></g></g></g><g id="g-root-sy_5_line_5vh0y1wvfdon-fill" data-item-order="-131207" transform="translate(222.7001953125, 502.90478515625)"></g><g id="g-root-cr_4_cr-small-4_1ur60vm1wvfe9s-fill" data-item-order="-131204" transform="translate(290, 506)"><g id="cr_4_cr-small-4_1ur60vm1wvfe9s-fill-merged" stroke="none" fill="#914673"><g><path d="M10 46C10 65.882 26.118 82 46 82C65.882 82 82 65.882 82 46C82 26.118 65.882 10 46 10C26.118 10 10 26.118 10 46"></path></g></g></g><g id="g-root-sy_4_line_1ur60vm1wvfe9t-fill" data-item-order="-131199" transform="translate(375.5, 501.455078125)"></g><g id="g-root-cr_3_cr-small-3_1lvj0mq1wvff2i-fill" data-item-order="-131196" transform="translate(424.86822509765625, 427.96240234375)"><g id="cr_3_cr-small-3_1lvj0mq1wvff2i-fill-merged" stroke="none" fill="#954643"><g><path d="M10 46C10 65.882 26.118 82 46 82C65.882 82 82 65.882 82 46C82 26.118 65.882 10 46 10C26.118 10 10 26.118 10 46"></path></g></g></g><g id="g-root-sy_3_line_1hfpiia1wvffur-fill" data-item-order="-131191" transform="translate(478.42095947265625, 352.68505859375)"></g><g id="g-root-cr_2_cr-small-2_18kozci1wvfdho-fill" data-item-order="-131188" transform="translate(424.8681640625, 272.02490234375)"><g id="cr_2_cr-small-2_18kozci1wvfdho-fill-merged" stroke="none" fill="#815d3b"><g><path d="M10 46C10 65.882 26.118 82 46 82C65.882 82 82 65.882 82 46C82 26.118 65.882 10 46 10C26.118 10 10 26.118 10 46"></path></g></g></g><g id="g-root-sy_2_line_18kozci1wvfdhp-fill" data-item-order="-131183" transform="translate(373.4404296875, 237.35498046875)"></g><g id="g-root-cr_1_cr-small-1_144vh821wvfe9y-fill" data-item-order="-131178" transform="translate(290, 194)"><g id="cr_1_cr-small-1_144vh821wvfe9y-fill-merged" stroke="none" fill="#776f30"><g><path d="M10 46C10 65.882 26.118 82 46 82C65.882 82 82 65.882 82 46C82 26.118 65.882 10 46 10C26.118 10 10 26.118 10 46"></path></g></g></g><g id="g-root-sy_1_line_144vh821wvfe9z-fill" data-item-order="-131173" transform="translate(221.099609375, 238.02508544921875)"></g><g id="g-root-cr_0_cr-big_zp1z3m1wvff28-fill" data-item-order="-131120" transform="translate(242, 302)"><g id="cr_0_cr-big_zp1z3m1wvff28-fill-merged" stroke="none" fill="#6b6b6b"><g><path d="M10 94C10 140.392 47.608 178 94 178C140.392 178 178 140.392 178 94C178 47.608 140.392 10 94 10C47.608 10 10 47.608 10 94"></path></g></g></g><g id="g-root-ic_lapt_1hdu6eq1wvgtfr-fill" data-item-order="-3600" transform="translate(296, 326)"><g id="ic_lapt_1hdu6eq1wvgtfr-fill-merged" stroke="none" fill="#b7b7b7"><g><path d="M55.925 56.65C55.045 55.67 53.814 55.078 52.5 55 H21.85C21.505 55 21.225 54.72 21.225 54.375 V34.375C21.225 34.03 21.505 33.75 21.85 33.75 H37.5C38.881 33.75 40 32.631 40 31.25C40 29.869 38.881 28.75 37.5 28.75 H21.225C18.464 28.75 16.225 30.989 16.225 33.75 V56.45C16.286 56.678 16.196 56.919 16 57.05L11 61.125C10.331 61.659 9.982 62.499 10.075 63.35C10.15 64.564 10.719 65.695 11.649 66.479C12.58 67.263 13.79 67.632 15 67.5 H57.5C58.722 67.654 59.953 67.296 60.9 66.509C61.847 65.723 62.427 64.579 62.5 63.35C62.593 62.499 62.244 61.659 61.575 61.125C59.599 59.754 57.712 58.259 55.925 56.65 M41.225 63.125 H31.225C30.189 63.125 29.35 62.286 29.35 61.25C29.35 60.214 30.189 59.375 31.225 59.375 H41.225C42.261 59.375 43.1 60.214 43.1 61.25C43.1 62.286 42.261 63.125 41.225 63.125 M63.975 44.225C63.787 43.982 63.787 43.643 63.975 43.4C65.456 41.309 66.259 38.813 66.275 36.25C66.275 29.346 60.679 23.75 53.775 23.75C46.871 23.75 41.275 29.346 41.275 36.25C41.275 43.154 46.871 48.75 53.775 48.75C55.754 48.737 57.7 48.249 59.45 47.325C59.669 47.178 59.956 47.178 60.175 47.325L65.775 52.925C66.755 53.898 68.339 53.893 69.313 52.912C70.286 51.932 70.28 50.348 69.3 49.375L63.975 44.225 M53.725 43.75C49.583 43.75 46.225 40.392 46.225 36.25C46.225 32.108 49.583 28.75 53.725 28.75C57.867 28.75 61.225 32.108 61.225 36.25C61.225 40.392 57.867 43.75 53.725 43.75 M51.225 15 V20C51.225 21.381 52.344 22.5 53.725 22.5C55.106 22.5 56.225 21.381 56.225 20 V15C56.225 13.619 55.106 12.5 53.725 12.5C52.344 12.5 51.225 13.619 51.225 15 M40.725 16.975C40.252 17.444 39.986 18.083 39.986 18.75C39.986 19.417 40.252 20.056 40.725 20.525L43.225 23.025C44.205 23.998 45.789 23.993 46.763 23.013C47.736 22.032 47.73 20.448 46.75 19.475L44.25 16.975C43.275 16.006 41.7 16.006 40.725 16.975 M63.225 16.975L60.725 19.475C59.745 20.448 59.739 22.032 60.713 23.013C61.686 23.993 63.27 23.998 64.25 23.025L66.75 20.525C67.223 20.056 67.489 19.417 67.489 18.75C67.489 18.083 67.223 17.444 66.75 16.975C65.775 16.006 64.2 16.006 63.225 16.975"></path></g></g></g><g id="g-root-ic_head_qteyuq1wvffux-fill" data-item-order="-2304" transform="translate(167, 284)"><g id="ic_head_qteyuq1wvffux-fill-merged" stroke="none" fill="#43dd93"><g><path d="M48.496 17.286C49.435 16.706 50.667 16.997 51.248 17.936L57.418 27.926C57.842 28.614 57.81 29.489 57.337 30.145C56.865 30.8 56.045 31.107 55.258 30.922L49.238 29.498L47.336 37.088C45.21 45.295 37.823 51.012 29.366 51.012 H12.784C11.403 51.012 10.284 49.893 10.284 48.512C10.284 47.131 11.403 46.012 12.784 46.012 H29.366C35.54 46.011 40.934 41.838 42.486 35.862L44.37 28.348L39.098 27.1C38.311 26.914 37.713 26.272 37.584 25.473C37.455 24.675 37.82 23.877 38.508 23.452L48.496 17.286"></path></g></g></g><g id="g-root-ic_eye_8dgj61wve1hh-fill" data-item-order="-2304" transform="translate(437, 284)"><g id="ic_eye_8dgj61wve1hh-fill-merged" stroke="none" fill="#f79438"><g><path d="M53 30C51.482 30.001 50.095 30.861 49.42 32.22C49.341 32.392 49.169 32.501 48.98 32.5 H47.36C47.112 32.503 46.9 32.325 46.86 32.08C46.02 26.452 41.622 22.022 36 21.14C35.755 21.1 35.577 20.888 35.58 20.64 V19.04C35.57 18.844 35.681 18.662 35.86 18.58C37.523 17.754 38.399 15.891 37.974 14.084C37.55 12.276 35.937 10.998 34.08 10.998C32.223 10.998 30.61 12.276 30.186 14.084C29.761 15.891 30.637 17.754 32.3 18.58C32.479 18.662 32.59 18.844 32.58 19.04 V20.66C32.573 20.9 32.397 21.102 32.16 21.14C26.501 21.948 22.031 26.353 21.14 32C21.1 32.245 20.888 32.423 20.64 32.42 H19.04C18.844 32.43 18.662 32.319 18.58 32.14C17.754 30.477 15.891 29.601 14.084 30.026C12.276 30.45 10.998 32.063 10.998 33.92C10.998 35.777 12.276 37.39 14.084 37.814C15.891 38.239 17.754 37.363 18.58 35.7C18.659 35.528 18.831 35.419 19.02 35.42 H20.64C20.888 35.417 21.1 35.595 21.14 35.84C21.948 41.499 26.353 45.969 32 46.86C32.245 46.9 32.423 47.112 32.42 47.36 V48.98C32.421 49.169 32.312 49.341 32.14 49.42C30.477 50.246 29.601 52.109 30.026 53.916C30.45 55.724 32.063 57.002 33.92 57.002C35.777 57.002 37.39 55.724 37.814 53.916C38.239 52.109 37.363 50.246 35.7 49.42C35.528 49.341 35.419 49.169 35.42 48.98 V47.36C35.417 47.112 35.595 46.9 35.84 46.86C41.499 46.052 45.969 41.647 46.86 36C46.9 35.755 47.112 35.577 47.36 35.58 H48.98C49.169 35.579 49.341 35.688 49.42 35.86C50.33 37.592 52.359 38.412 54.216 37.798C56.074 37.184 57.215 35.316 56.913 33.383C56.612 31.45 54.956 30.019 53 30 M45.86 34.52C43.217 38.503 38.78 40.927 34 41C29.22 40.927 24.783 38.503 22.14 34.52C21.958 34.197 21.958 33.803 22.14 33.48C24.783 29.497 29.22 27.073 34 27C38.78 27.073 43.217 29.497 45.86 33.48C46.042 33.803 46.042 34.197 45.86 34.52 M16 21C16 23.209 17.791 25 20 25C22.209 25 24 23.209 24 21C24 18.791 22.209 17 20 17C17.791 17 16 18.791 16 21 M17 48C17 50.209 18.791 52 21 52C23.209 52 25 50.209 25 48C25 45.791 23.209 44 21 44C18.791 44 17 45.791 17 48 M44 47C44 49.209 45.791 51 48 51C50.209 51 52 49.209 52 47C52 44.791 50.209 43 48 43C45.791 43 44 44.791 44 47 M43 20C43 22.209 44.791 24 47 24C49.209 24 51 22.209 51 20C51 17.791 49.209 16 47 16C44.791 16 43 17.791 43 20 M29 34C29 36.761 31.239 39 34 39C36.761 39 39 36.761 39 34C39 31.239 36.761 29 34 29C31.239 29 29 31.239 29 34"></path></g></g></g><g id="g-root-ic_page_1lqjb3m1wvfdae-fill" data-item-order="-2304" transform="translate(302, 206)"><g id="ic_page_1lqjb3m1wvfdae-fill-merged" stroke="none" fill="#ffe711"><g><path d="M50.48 47.66C54.505 42.162 53.618 34.492 48.444 30.057C43.271 25.623 35.555 25.919 30.737 30.737C25.919 35.555 25.623 43.271 30.057 48.444C34.492 53.618 42.162 54.505 47.66 50.48L54.58 57.42C54.956 57.799 55.467 58.012 56 58.012C56.533 58.012 57.044 57.799 57.42 57.42C57.799 57.044 58.012 56.533 58.012 56C58.012 55.467 57.799 54.956 57.42 54.58L50.48 47.66 M40 31C44.971 31 49 35.029 49 40C49 44.971 44.971 49 40 49C35.029 49 31 44.971 31 40C31.011 35.034 35.034 31.011 40 31 M36 41.5 H44C44.828 41.5 45.5 40.828 45.5 40C45.5 39.172 44.828 38.5 44 38.5 H36C35.172 38.5 34.5 39.172 34.5 40C34.5 40.828 35.172 41.5 36 41.5 M14 10C11.791 10 10 11.791 10 14 V18C10 19.105 10.895 20 12 20C13.105 20 14 19.105 14 18 V14 H18C19.105 14 20 13.105 20 12C20 10.895 19.105 10 18 10 H14 M14 54 V50C14 48.895 13.105 48 12 48C10.895 48 10 48.895 10 50 V54C10 56.209 11.791 58 14 58 H18C19.105 58 20 57.105 20 56C20 54.895 19.105 54 18 54 H14 M12 33.06C13.105 33.06 14 32.165 14 31.06 V25.2C14 24.095 13.105 23.2 12 23.2C10.895 23.2 10 24.095 10 25.2 V31.06C10 32.165 10.895 33.06 12 33.06 M12 44.8C13.105 44.8 14 43.905 14 42.8 V36.94C14 35.835 13.105 34.94 12 34.94C10.895 34.94 10 35.835 10 36.94 V42.8C10 43.905 10.895 44.8 12 44.8 M56 23.2C54.895 23.2 54 24.095 54 25.2 V31.06C54 32.165 54.895 33.06 56 33.06C57.105 33.06 58 32.165 58 31.06 V25.2C58 24.095 57.105 23.2 56 23.2 M25.2 14 H30C31.105 14 32 13.105 32 12C32 10.895 31.105 10 30 10 H25.2C24.095 10 23.2 10.895 23.2 12C23.2 13.105 24.095 14 25.2 14 M38 14 H42.8C43.905 14 44.8 13.105 44.8 12C44.8 10.895 43.905 10 42.8 10 H38C36.895 10 36 10.895 36 12C36 13.105 36.895 14 38 14 M54 14 V18C54 19.105 54.895 20 56 20C57.105 20 58 19.105 58 18 V14C58 11.791 56.209 10 54 10 H50C48.895 10 48 10.895 48 12C48 13.105 48.895 14 50 14 H54 M30 54 H25.2C24.095 54 23.2 54.895 23.2 56C23.2 57.105 24.095 58 25.2 58 H30C31.105 58 32 57.105 32 56C32 54.895 31.105 54 30 54"></path></g></g></g><g id="g-root-ic_map_v98gz61wvmfic-fill" data-item-order="-2304" transform="translate(167, 440)"><g id="ic_map_v98gz61wvmfic-fill-merged" stroke="none" fill="#cb68f9"><g><path d="M54 25C54 23.343 52.657 22 51 22 H48.78C48.296 21.994 47.879 22.342 47.8 22.82C46.58 29.48 39.64 40.66 37.36 44.18C36.623 45.321 35.358 46.01 34 46.01C32.642 46.01 31.377 45.321 30.64 44.18C28.36 40.64 21.42 29.48 20.2 22.82C20.121 22.342 19.704 21.994 19.22 22 H17C15.343 22 14 23.343 14 25 V55C14 56.657 15.343 58 17 58 H51C52.657 58 54 56.657 54 55 V25 M34 10C27.929 10.011 23.011 14.929 23 21C23 26.76 32.74 41.9 33.16 42.54C33.344 42.825 33.661 42.997 34 42.997C34.339 42.997 34.656 42.825 34.84 42.54C35.26 42 45 26.76 45 21C44.989 14.929 40.071 10.011 34 10 M34 25C31.791 25 30 23.209 30 21C30 18.791 31.791 17 34 17C36.209 17 38 18.791 38 21C38 23.209 36.209 25 34 25"></path></g></g></g><g id="g-root-ic_6_4g2sj61wv8du1-fill" data-item-order="-2304" transform="translate(437, 440)"><g id="ic_6_4g2sj61wv8du1-fill-merged" stroke="none" fill="#fb6762"><g><path d="M20.98 37.24C20.731 36.971 20.353 36.863 20 36.96C19.665 37.047 19.395 37.294 19.28 37.62L16.5 46.1C16.387 46.465 16.479 46.862 16.74 47.14L22.4 52.78C22.581 52.974 22.835 53.083 23.1 53.08 H23.42L32 50.2C32.335 50.098 32.588 49.822 32.66 49.48C32.738 49.143 32.641 48.789 32.4 48.54L20.98 37.24 M16.74 50C16.552 49.811 16.297 49.704 16.03 49.704C15.763 49.704 15.508 49.811 15.32 50L10.38 54.9C10.086 55.184 9.994 55.618 10.148 55.997C10.302 56.376 10.671 56.622 11.08 56.62 H16.8C17.061 56.622 17.312 56.521 17.5 56.34L19.5 54.34C19.689 54.152 19.796 53.897 19.796 53.63C19.796 53.363 19.689 53.108 19.5 52.92L16.74 50 M57.04 20.96L48.56 12.48C47.384 11.321 45.496 11.321 44.32 12.48L42.9 14L42.38 13.42C41.27 12.156 39.681 11.416 38 11.38C36.365 11.332 34.784 11.97 33.64 13.14L27.36 19.5C26.576 20.279 26.571 21.546 27.35 22.33C28.129 23.114 29.396 23.119 30.18 22.34L36.54 16C36.92 15.601 37.449 15.377 38 15.38C38.55 15.392 39.071 15.631 39.44 16.04L40.02 16.66L22.4 34.4C22.205 34.588 22.096 34.849 22.1 35.12C22.102 35.384 22.21 35.637 22.4 35.82L33.7 47.14C33.897 47.319 34.154 47.419 34.42 47.42C34.68 47.417 34.93 47.318 35.12 47.14L57.12 25.14C58.228 23.954 58.193 22.102 57.04 20.96"></path></g></g></g><g id="g-root-ic_1_8vwanm1wv2rka-fill" data-item-order="-2304" transform="translate(301.9990234375, 518)"><g id="ic_1_8vwanm1wv2rka-fill-merged" stroke="none" fill="#f366bb"><g><path d="M22 34C22 35.105 22.895 36 24 36 H43C44.105 36 45 35.105 45 34C45 32.895 44.105 32 43 32 H24C22.895 32 22 32.895 22 34 M26.4 39.44C25.158 40.454 23.603 41.005 22 41C18.134 41 15 37.866 15 34C15 30.134 18.134 27 22 27C23.603 26.995 25.158 27.546 26.4 28.56C27.262 29.256 28.524 29.122 29.22 28.26C29.916 27.399 29.782 26.136 28.92 25.44C24.428 21.815 17.897 22.278 13.963 26.502C10.028 30.726 10.028 37.274 13.963 41.498C17.897 45.722 24.428 46.185 28.92 42.56C29.782 41.864 29.916 40.601 29.22 39.74C28.524 38.878 27.262 38.744 26.4 39.44 M46 23C43.483 23.002 41.042 23.863 39.08 25.44C38.219 26.136 38.085 27.398 38.78 28.26C39.476 29.121 40.738 29.256 41.6 28.56C42.842 27.546 44.397 26.995 46 27C49.866 27 53 30.134 53 34C53 37.866 49.866 41 46 41C44.397 41.005 42.842 40.454 41.6 39.44C40.738 38.744 39.476 38.879 38.78 39.74C38.085 40.602 38.219 41.864 39.08 42.56C42.841 45.595 48.142 45.82 52.146 43.115C56.151 40.409 57.92 35.407 56.508 30.786C55.096 26.164 50.833 23.005 46 23"></path></g></g></g><g id="g-root-tx_monitorr_v5hpma1wvffgk-fill" data-item-order="0" transform="translate(62, 266)"><g id="tx_monitorr_v5hpma1wvffgk-fill-merged" stroke="none" fill="#f4f4f4"><g><text style="font: 20px &quot;Shantell Sans&quot;, cursive; white-space: pre;" font-size="20px" font-family="'Shantell Sans', cursive"><tspan x="13.89" y="35" dominant-baseline="ideographic">Monitor </tspan><tspan x="22.02" y="59" dominant-baseline="ideographic">Results</tspan></text></g></g></g><g id="g-root-tx_websiteo_vahib61wvffnl-fill" data-item-order="0" transform="translate(506, 266)"><g id="tx_websiteo_vahib61wvffnl-fill-merged" stroke="none" fill="#f4f4f4"><g><text style="font: 20px &quot;Shantell Sans&quot;, cursive; white-space: pre;" font-size="20px" font-family="'Shantell Sans', cursive"><tspan x="12" y="35" dominant-baseline="ideographic">Website </tspan><tspan x="12" y="59" dominant-baseline="ideographic">Optimization</tspan></text></g></g></g><g id="g-root-tx_seo_1ltnoj61wvgsni-fill" data-item-order="0" transform="translate(302.0009765625, 410.009765625)"><g id="tx_seo_1ltnoj61wvgsni-fill-merged" stroke="none" fill="#4f91fc"><g><text style="font: 20px &quot;Shantell Sans&quot;, cursive; white-space: pre;" font-size="20px" font-family="'Shantell Sans', cursive"><tspan x="15.36" y="35" dominant-baseline="ideographic">SEO</tspan></text></g></g></g><g id="g-root-tx_linkbuil_1hfplo21wvfdhr-fill" data-item-order="0" transform="translate(260, 590)"><g id="tx_linkbuil_1hfplo21wvfdhr-fill-merged" stroke="none" fill="#f4f4f4"><g><text style="font: 20px &quot;Shantell Sans&quot;, cursive; white-space: pre;" font-size="20px" font-family="'Shantell Sans', cursive"><tspan x="14.5" y="35" dominant-baseline="ideographic">Link Building</tspan></text></g></g></g><g id="g-root-tx_localopt_zn6n021wvfdop-fill" data-item-order="0" transform="translate(14, 458)"><g id="tx_localopt_zn6n021wvfdop-fill-merged" stroke="none" fill="#f4f4f4"><g><text style="font: 20px &quot;Shantell Sans&quot;, cursive; white-space: pre;" font-size="20px" font-family="'Shantell Sans', cursive"><tspan x="89.3" y="35" dominant-baseline="ideographic">Local </tspan><tspan x="16.78" y="59" dominant-baseline="ideographic">Optimization</tspan></text></g></g></g><g id="g-root-tx_contentc_4my0he1wvfdhg-fill" data-item-order="0" transform="translate(506, 458)"><g id="tx_contentc_4my0he1wvfdhg-fill-merged" stroke="none" fill="#f4f4f4"><g><text style="font: 20px &quot;Shantell Sans&quot;, cursive; white-space: pre;" font-size="20px" font-family="'Shantell Sans', cursive"><tspan x="12" y="35" dominant-baseline="ideographic">Content </tspan><tspan x="12" y="59" dominant-baseline="ideographic">Creation</tspan></text></g></g></g><g id="g-root-tx_research_1qegzci1wvfdvq-fill" data-item-order="0" transform="translate(278, 158)"><g id="tx_research_1qegzci1wvfdvq-fill-merged" stroke="none" fill="#f4f4f4"><g><text style="font: 20px &quot;Shantell Sans&quot;, cursive; white-space: pre;" font-size="20px" font-family="'Shantell Sans', cursive"><tspan x="14.11" y="35" dominant-baseline="ideographic">Research</tspan></text></g></g></g><g id="g-root-tx_seoproce_8x58tu1wvgumj-fill" data-item-order="0" transform="translate(206, 38)"><g id="tx_seoproce_8x58tu1wvgumj-fill-merged" stroke="none" fill="#f4f4f4"><g><text style="font: bold 25px &quot;Shantell Sans&quot;, cursive; white-space: pre;" font-weight="bold" font-size="25px" font-family="'Shantell Sans', cursive"><tspan x="14.27" y="45" dominant-baseline="ideographic">SEO Process Cycle</tspan></text></g></g></g><g id="g-root-cr_6_cr-small-6_dgpib61wvff9g-stroke" data-item-order="-131220" transform="translate(155.1328125, 272.02490234375)"><g id="cr_6_cr-small-6_dgpib61wvff9g-stroke" fill="none" stroke-linecap="round" stroke-linejoin="round" stroke-miterlimit="4" stroke="#2c2c2c" stroke-width="2"><g><path d="M 10 46C 10 65.882251 26.117749 82 46 82C 65.882251 82 82 65.882251 82 46C 82 26.117749 65.882251 10 46 10C 26.117749 10 10 26.117749 10 46"></path></g></g></g><g id="g-root-sy_6_line_4l2i2a1wvfg25-stroke" data-item-order="-131215" transform="translate(170.00018310546875, 354.81494140625)"><g id="sy_6_line_4l2i2a1wvfg25-stroke" fill="none" stroke-linecap="round" stroke-linejoin="round" stroke-miterlimit="4" stroke="#f4f4f4" stroke-width="2"><g><path d="M 12.749817 11.955078C 10.949817 21.425078 9.999817 31.185078 9.999817 41.175078C 9.999817 52.605078 11.239817 63.735078 13.569817 74.465078"></path><path d="M 18.299817 18.955078L 12.899817 11.455078L 5.399817 16.855078" stroke-dasharray="none"></path></g></g></g><g id="g-root-cr_5_cr-small-5_5vh0y1wvfdom-stroke" data-item-order="-131212" transform="translate(155.1328125, 427.96240234375)"><g id="cr_5_cr-small-5_5vh0y1wvfdom-stroke" fill="none" stroke-linecap="round" stroke-linejoin="round" stroke-miterlimit="4" stroke="#2c2c2c" stroke-width="2"><g><path d="M 10 46C 10 65.882251 26.117749 82 46 82C 65.882251 82 82 65.882251 82 46C 82 26.117749 65.882251 10 46 10C 26.117749 10 10 26.117749 10 46"></path></g></g></g><g id="g-root-sy_5_line_5vh0y1wvfdon-stroke" data-item-order="-131207" transform="translate(222.7001953125, 502.90478515625)"><g id="sy_5_line_5vh0y1wvfdon-stroke" fill="none" stroke-linecap="round" stroke-linejoin="round" stroke-miterlimit="4" stroke="#f4f4f4" stroke-width="2"><g><path d="M 11.459808 11.275146C 27.179808 24.825146 45.619808 35.295146 65.859808 41.735146"></path><path d="M 20.259808 10.075146L 11.159808 10.975146L 12.059808 20.075146" stroke-dasharray="none"></path></g></g></g><g id="g-root-cr_4_cr-small-4_1ur60vm1wvfe9s-stroke" data-item-order="-131204" transform="translate(290, 506)"><g id="cr_4_cr-small-4_1ur60vm1wvfe9s-stroke" fill="none" stroke-linecap="round" stroke-linejoin="round" stroke-miterlimit="4" stroke="#2c2c2c" stroke-width="2"><g><path d="M 10 46C 10 65.882251 26.117749 82 46 82C 65.882251 82 82 65.882251 82 46C 82 26.117749 65.882251 10 46 10C 26.117749 10 10 26.117749 10 46"></path></g></g></g><g id="g-root-sy_4_line_1ur60vm1wvfe9t-stroke" data-item-order="-131199" transform="translate(375.5, 501.455078125)"><g id="sy_4_line_1ur60vm1wvfe9t-stroke" fill="none" stroke-linecap="round" stroke-linejoin="round" stroke-miterlimit="4" stroke="#f4f4f4" stroke-width="2"><g><path d="M 11.880005 41.874883C 31.900005 34.904883 50.050005 23.964883 65.410005 10.004883"></path><path d="M 15.180005 33.604883L 11.380005 42.004883L 19.780005 45.804883" stroke-dasharray="none"></path></g></g></g><g id="g-root-cr_3_cr-small-3_1lvj0mq1wvff2i-stroke" data-item-order="-131196" transform="translate(424.86822509765625, 427.96240234375)"><g id="cr_3_cr-small-3_1lvj0mq1wvff2i-stroke" fill="none" stroke-linecap="round" stroke-linejoin="round" stroke-miterlimit="4" stroke="#2c2c2c" stroke-width="2"><g><path d="M 10 46C 10 65.882251 26.117749 82 46 82C 65.882251 82 82 65.882251 82 46C 82 26.117749 65.882251 10 46 10C 26.117749 10 10 26.117749 10 46"></path></g></g></g><g id="g-root-sy_3_line_1hfpiia1wvffur-stroke" data-item-order="-131191" transform="translate(478.42095947265625, 352.68505859375)"><g id="sy_3_line_1hfpiia1wvffur-stroke" fill="none" stroke-linecap="round" stroke-linejoin="round" stroke-miterlimit="4" stroke="#f4f4f4" stroke-width="2"><g><path d="M 10.829023 72.524944C 12.629023 63.064944 13.579023 53.304944 13.579023 43.314944C 13.579023 31.884944 12.339023 20.744944 9.999023 10.004944"></path><path d="M 5.299023 65.504944L 10.699023 73.004944L 18.199023 67.604944" stroke-dasharray="none"></path></g></g></g><g id="g-root-cr_2_cr-small-2_18kozci1wvfdho-stroke" data-item-order="-131188" transform="translate(424.8681640625, 272.02490234375)"><g id="cr_2_cr-small-2_18kozci1wvfdho-stroke" fill="none" stroke-linecap="round" stroke-linejoin="round" stroke-miterlimit="4" stroke="#2c2c2c" stroke-width="2"><g><path d="M 10 46C 10 65.882251 26.117749 82 46 82C 65.882251 82 82 65.882251 82 46C 82 26.117749 65.882251 10 46 10C 26.117749 10 10 26.117749 10 46"></path></g></g></g><g id="g-root-sy_2_line_18kozci1wvfdhp-stroke" data-item-order="-131183" transform="translate(373.4404296875, 237.35498046875)"><g id="sy_2_line_18kozci1wvfdhp-stroke" fill="none" stroke-linecap="round" stroke-linejoin="round" stroke-miterlimit="4" stroke="#f4f4f4" stroke-width="2"><g><path d="M 64.379573 40.454995C 48.669573 26.904995 30.229573 16.444995 9.999573 9.994995"></path><path d="M 55.499573 41.694995L 64.699573 40.794995L 63.799573 31.594995" stroke-dasharray="none"></path></g></g></g><g id="g-root-cr_1_cr-small-1_144vh821wvfe9y-stroke" data-item-order="-131178" transform="translate(290, 194)"><g id="cr_1_cr-small-1_144vh821wvfe9y-stroke" fill="none" stroke-linecap="round" stroke-linejoin="round" stroke-miterlimit="4" stroke="#2c2c2c" stroke-width="2"><g><path d="M 10 46C 10 65.882251 26.117749 82 46 82C 65.882251 82 82 65.882251 82 46C 82 26.117749 65.882251 10 46 10C 26.117749 10 10 26.117749 10 46"></path></g></g></g><g id="g-root-sy_1_line_144vh821wvfe9z-stroke" data-item-order="-131173" transform="translate(221.099609375, 238.02508544921875)"><g id="sy_1_line_144vh821wvfe9z-stroke" fill="none" stroke-linecap="round" stroke-linejoin="round" stroke-miterlimit="4" stroke="#f4f4f4" stroke-width="2"><g><path d="M 63.520397 10.644897C 43.510397 17.614897 25.350397 28.544897 10.000397 42.514897"></path><path d="M 60.200397 18.944897L 64.000397 10.544897L 55.600397 6.744897" stroke-dasharray="none"></path></g></g></g><g id="g-root-cr_0_cr-big_zp1z3m1wvff28-stroke" data-item-order="-131120" transform="translate(242, 302)"><g id="cr_0_cr-big_zp1z3m1wvff28-stroke" fill="none" stroke-linecap="round" stroke-linejoin="round" stroke-miterlimit="4" stroke="#2c2c2c" stroke-width="2"><g><path d="M 10 94C 10.000002 140.391921 47.608083 178.000002 94.000002 178.000002C 140.391921 178.000002 178.000002 140.391921 178.000002 94.000002C 178.000002 47.608083 140.391921 10.000002 94.000002 10.000002C 47.608083 10.000002 10.000002 47.608083 10.000002 94.000002"></path></g></g></g><g id="g-root-ic_lapt_1hdu6eq1wvgtfr-stroke" data-item-order="-3600" transform="translate(296, 326)"></g><g id="g-root-ic_head_qteyuq1wvffux-stroke" data-item-order="-2304" transform="translate(167, 284)"></g><g id="g-root-ic_eye_8dgj61wve1hh-stroke" data-item-order="-2304" transform="translate(437, 284)"></g><g id="g-root-ic_page_1lqjb3m1wvfdae-stroke" data-item-order="-2304" transform="translate(302, 206)"></g><g id="g-root-ic_map_v98gz61wvmfic-stroke" data-item-order="-2304" transform="translate(167, 440)"></g><g id="g-root-ic_6_4g2sj61wv8du1-stroke" data-item-order="-2304" transform="translate(437, 440)"></g><g id="g-root-ic_1_8vwanm1wv2rka-stroke" data-item-order="-2304" transform="translate(301.9990234375, 518)"></g><g id="g-root-tx_monitorr_v5hpma1wvffgk-stroke" data-item-order="0" transform="translate(62, 266)"></g><g id="g-root-tx_websiteo_vahib61wvffnl-stroke" data-item-order="0" transform="translate(506, 266)"></g><g id="g-root-tx_seo_1ltnoj61wvgsni-stroke" data-item-order="0" transform="translate(302.0009765625, 410.009765625)"></g><g id="g-root-tx_linkbuil_1hfplo21wvfdhr-stroke" data-item-order="0" transform="translate(260, 590)"></g><g id="g-root-tx_localopt_zn6n021wvfdop-stroke" data-item-order="0" transform="translate(14, 458)"></g><g id="g-root-tx_contentc_4my0he1wvfdhg-stroke" data-item-order="0" transform="translate(506, 458)"></g><g id="g-root-tx_research_1qegzci1wvfdvq-stroke" data-item-order="0" transform="translate(278, 158)"></g><g id="g-root-tx_seoproce_8x58tu1wvgumj-stroke" data-item-order="0" transform="translate(206, 38)"></g></g></g><path id="w1ly0e0i1xzb0ni" d="M65.283 12.757a.35.35 0 0 0 .584.157l5.203-5.141-6.183 3.523.396 1.461zm-2.216-11.7a.35.35 0 0 0-.522.305v3.111l3.276-1.868-2.754-1.548zm3.728 2.105l-4.25 2.421v2.445l6.391-3.644-2.141-1.222zm4.708 3.303a.35.35 0 0 0 0-.609l-1.592-.9-7.365 4.199v1.782a.35.35 0 0 0 .523.305l8.435-4.777z M44.542 2.513c0-.433.355-.783.792-.783s.792.35.792.783-.355.783-.792.783-.792-.35-.792-.783zm59.171 0c0-.433.355-.783.792-.783s.792.35.792.783-.355.783-.792.783-.792-.35-.792-.783zm-85.951 7.636h-1.27v-.487c-.276.201-.864.609-1.881.609-1.202 0-2.274-.794-2.137-2.078.118-1.106 1.153-1.584 1.848-1.727l2.17-.345c0-.539-.29-.956-1.064-1.006s-1.21.305-1.571 1.017l-1.124-.605c1.218-2.631 5.029-1.764 5.029.414v4.207zm-1.27-2.86c.006.396-.062 1.112-.819 1.59-.587.37-1.841.299-1.903-.395-.049-.555.461-.791.906-.898l1.816-.297zm72.662 2.86h-1.27v-.487c-.276.201-.864.609-1.881.609-1.202 0-2.274-.794-2.137-2.078.118-1.106 1.153-1.584 1.848-1.727l2.17-.345c0-.539-.29-.956-1.064-1.006s-1.21.305-1.571 1.017l-1.124-.605c1.218-2.631 5.029-1.764 5.029.414v4.207zm-1.27-2.86c.006.396-.062 1.112-.82 1.59-.587.37-1.841.299-1.903-.395-.049-.555.461-.791.906-.898l1.816-.297zM99.096 10.149H97.85v-8.45h1.246v4.895l2.68-2.559h1.738l-2.633 2.535 2.715 3.578h-1.556l-2.077-2.707-.867.844v1.863zm6.053-6.114h-1.255v6.113h1.255V4.035zm-59.2 0h-1.255v6.113h1.255V4.035zm5.584 6.113V1.697h1.255v2.695c.361-.346 1-.485 1.47-.485 1.452 0 2.477 1.082 2.457 2.448v3.792h-1.27v-3.68c0-.408-.214-1.339-1.315-1.339-.968 0-1.342.756-1.342 1.339v3.681h-1.255zm-4.76-4.894V4.039h.621a.45.45 0 0 0 .45-.45v-.855h1.251v1.305h1.309v1.215h-1.309v3.109c0 .293.105.664.648.664.365 0 .531-.035.736-.07v1.137s-.361.113-.857.113c-1.398 0-1.777-1.051-1.777-1.788V5.254h-1.071zM36.528 4.039h-1.394l2.191 6.106h1.125l1.234-3.918 1.238 3.918h1.129l2.188-6.106h-1.383l-1.359 3.93-1.256-3.93h-1.124l-1.242 3.957-1.348-3.957zM26.212 7.141c-.02 1.566 1.187 3.129 3.223 3.129 1.566 0 2.383-.918 2.734-1.719L31.172 8c-.315.399-.801 1.094-1.738 1.094-1.145 0-1.825-.781-1.891-1.52h4.625c.074-.284.148-.995-.03-1.559-.336-1.064-1.221-2.102-2.839-2.102s-3.088 1.152-3.088 3.227zm1.363-.75h3.348c-.055-.43-.566-1.301-1.623-1.301a1.79 1.79 0 0 0-1.725 1.301zm-8.758.75c.038 1.758 1.277 3.133 3.145 3.133 1.074 0 1.723-.477 1.961-.672v.547h1.242V1.703h-1.258v2.888c-.414-.36-1.062-.68-1.93-.68-1.91 0-3.198 1.473-3.16 3.23zm1.309-.08c0 1.119.723 1.978 1.836 1.978a1.88 1.88 0 0 0 1.94-1.904c0-1.371-1.011-1.99-1.972-1.99s-1.805.798-1.805 1.916zm76.683-.028C96.771 5.275 95.532 3.9 93.664 3.9c-1.074 0-1.723.477-1.961.672v-.547h-1.242v8.22h1.258V9.583c.414.36 1.063.68 1.93.68 1.91 0 3.198-1.473 3.16-3.23zm-1.309.08c0-1.119-.723-1.978-1.836-1.978a1.88 1.88 0 0 0-1.94 1.904c0 1.371 1.011 1.99 1.972 1.99S95.5 8.231 95.5 7.113zM106.441 10.173V4.036h1.254v.382c.361-.346 1-.485 1.47-.485 1.452 0 2.477 1.082 2.457 2.448v3.792h-1.27V6.492c0-.408-.214-1.339-1.315-1.339-.969 0-1.342.756-1.342 1.339v3.681h-1.254zm-30.383-.021V1.824h1.084l4.215 5.777V1.824h1.32v8.328h-1.094l-4.207-5.796v5.796h-1.319zM5.24 10.149H4V2.377h1.014l2.664 3.597 2.654-3.592h1.03v7.766h-1.256V4.762L7.678 8.068 5.24 4.742v5.407z" transform="translate(536, 638)" fill="#ababab88" stroke="none"></path></svg>